<svg version="1.1" id="Layer_1" xmlns="http://www.w3.org/2000/svg" xmlns:xlink="http://www.w3.org/1999/xlink" x="0px" y="0px" viewBox="0 0 1200 1200" enable-background="new 0 0 1200 1200" xml:space="preserve">
<g>
	<g>
		<g>
			<path fill="#A2C63E" d="M679.198,831.347c0-8.805-5.581-15.943-12.463-15.943h-30.56h-1.617h-30.56&#10;&#9;&#9;&#9;&#9;c-6.883,0-12.463,7.138-12.463,15.943c9.969,98.848,10.195,199.705,0,302.71c0,8.805,5.581,15.943,12.463,15.943h30.56h1.617&#10;&#9;&#9;&#9;&#9;h30.56c6.883,0,12.463-7.138,12.463-15.943C669.003,1031.052,669.229,930.195,679.198,831.347z" style="fill: rgb(163, 183, 181);"/>
			<path fill="#A2C63E" d="M679.198,479.813c0-8.805-5.581-15.943-12.463-15.943h-30.56h-1.617h-30.56&#10;&#9;&#9;&#9;&#9;c-6.883,0-12.463,7.138-12.463,15.943c9.969,98.848,10.195,199.705,0,302.71c0,8.805,5.581,15.943,12.463,15.943h30.56h1.617&#10;&#9;&#9;&#9;&#9;h30.56c6.883,0,12.463-7.138,12.463-15.943C669.003,679.518,669.229,578.661,679.198,479.813z" style="fill: rgb(163, 183, 181);"/>
			<path fill="#8FAA2B" d="M679.198,831.347c0-8.805-5.581-15.942-12.463-15.942h-31.643V1150h31.643&#10;&#9;&#9;&#9;&#9;c6.883,0,12.463-7.138,12.463-15.942C669.003,1031.052,669.229,930.195,679.198,831.347z" style="fill: rgb(4, 110, 102);"/>
			<path fill="#8FAA2B" d="M679.198,479.813c0-8.805-5.581-15.943-12.463-15.943h-31.643v334.595h31.643&#10;&#9;&#9;&#9;&#9;c6.883,0,12.463-7.138,12.463-15.942C669.003,679.518,669.229,578.661,679.198,479.813z" style="fill: rgb(4, 110, 102);"/>
			<g>
				<g>
					<g>
						<path fill="#8FAA2B" d="M565.629,683.396c0.02,0.02,0.01,0.025,0.036,0.049C565.526,683.317,566,683.729,565.629,683.396z" style="fill: rgb(4, 110, 102);"/>
						<path fill="#8FAA2B" d="M455.195,468.397c0,0,0.023,0.19,0.064,0.505l110.202,214.342&#10;&#9;&#9;&#9;&#9;&#9;&#9;&#9;C565.461,683.244,571.688,560.644,455.195,468.397z" style="fill: rgb(4, 110, 102);"/>
					</g>
					<path fill="#8FAA2B" d="M565.456,681.939C565.62,682.088,565.619,682.085,565.456,681.939L565.456,681.939z" style="fill: rgb(4, 110, 102);"/>
				</g>
				<path fill="#A2C63E" d="M454.832,468.176c0,0,0.141,0.13,0.373,0.346l110.202,214.342&#10;&#9;&#9;&#9;&#9;&#9;C565.407,682.863,462.074,616.593,454.832,468.176z" style="fill: rgb(163, 183, 181);"/>
			</g>
			<g>
				<g>
					<g>
						<path fill="#8FAA2B" d="M556.976,705.87c0.026,0.002,0.022,0.011,0.054,0.011C556.858,705.879,557.429,705.874,556.976,705.87&#10;&#9;&#9;&#9;&#9;&#9;&#9;&#9;z" style="fill: rgb(4, 110, 102);"/>
						<path fill="#8FAA2B" d="M352.166,626.01c0,0,0.131,0.116,0.348,0.305l204.256,79.554&#10;&#9;&#9;&#9;&#9;&#9;&#9;&#9;C556.769,705.868,487.11,618.616,352.166,626.01z" style="fill: rgb(4, 110, 102);"/>
					</g>
					<path fill="#8FAA2B" d="M555.98,704.982C556.182,704.985,556.179,704.984,555.98,704.982L555.98,704.982z" style="fill: rgb(4, 110, 102);"/>
				</g>
				<path fill="#A2C63E" d="M351.785,626.077c0,0,0.174,0.003,0.462,0.011l204.256,79.554&#10;&#9;&#9;&#9;&#9;&#9;C556.504,705.642,446.181,722.794,351.785,626.077z" style="fill: rgb(163, 183, 181);"/>
			</g>
			<g>
				<g>
					<g>
						<path fill="#8FAA2B" d="M695.759,1128.998c-0.022,0.018-0.012,0.024-0.04,0.045&#10;&#9;&#9;&#9;&#9;&#9;&#9;&#9;C695.868,1128.928,695.362,1129.3,695.759,1128.998z" style="fill: rgb(4, 110, 102);"/>
					</g>
					<path fill="#8FAA2B" d="M696.051,1127.56C695.875,1127.696,695.877,1127.693,696.051,1127.56L696.051,1127.56z" style="fill: rgb(4, 110, 102);"/>
				</g>
			</g>
		</g>
		<path fill="#A2C63E" d="M678.978,128.719c0-8.805-5.581-15.943-12.463-15.943h-30.56h-1.617h-30.56&#10;&#9;&#9;&#9;c-6.883,0-12.463,7.138-12.463,15.943c9.969,98.848,10.195,199.705,0,302.71c0,8.805,5.581,15.943,12.463,15.943h30.56h1.617&#10;&#9;&#9;&#9;h30.56c6.883,0,12.463-7.138,12.463-15.943C668.783,328.424,669.009,227.567,678.978,128.719z" style="fill: rgb(163, 183, 181);"/>
		<path fill="#8FAA2B" d="M678.978,128.719c0-8.805-5.581-15.943-12.463-15.943h-31.643v334.595h31.643&#10;&#9;&#9;&#9;c6.883,0,12.463-7.138,12.463-15.942C668.783,328.424,669.009,227.567,678.978,128.719z" style="fill: rgb(4, 110, 102);"/>
	</g>
	<path fill="#8FAA2B" d="M848.146,50.419c0,0-0.168,0.093-0.444,0.249L690.449,233.311&#10;&#9;&#9;C690.449,233.311,806.41,193.032,848.146,50.419z" style="fill: rgb(4, 110, 102);"/>
	<path fill="#A2C63E" d="M848.215,50c0,0-0.067,0.18-0.18,0.476L690.781,233.118C690.781,233.118,713.385,112.46,848.215,50z" style="fill: rgb(163, 183, 181);"/>
</g>
</svg>