<svg version="1.1" id="Layer_1" xmlns="http://www.w3.org/2000/svg" xmlns:xlink="http://www.w3.org/1999/xlink" x="0px" y="0px" viewBox="0 0 1200 1200" enable-background="new 0 0 1200 1200" xml:space="preserve">
<g>
	<path fill="none" d="M388.967,569.013c160.819-55.831,733.459-255.065,759.069-270.055L388.967,569.013z"/>
	<path fill="#F7AA9C" d="M339.813,886.594h1.176c-0.34-0.558-0.755-1.236-1.152-1.887&#10;&#9;&#9;C339.821,885.931,339.813,886.594,339.813,886.594z" style="fill: rgb(35, 77, 89);"/>
	<path fill="#FFF3E1" d="M388.967,569.013l-40.667,14.469v0.482c9.928,4.047,19.95,9.376,29.997,15.669&#10;&#9;&#9;c53.647,33.6,107.929,96.176,151.906,155.79c1.739,2.358,3.494,4.72,5.2,7.066c53.021,72.915,89.766,139.252,89.766,139.252&#10;&#9;&#9;l523.326-602.946l-0.459,0.164C1122.425,313.949,549.786,513.182,388.967,569.013z" style="fill: rgb(225, 227, 224);"/>
	<g>
		<path fill="#F7AA9C" d="M378.296,599.633c-10.047-6.293-20.069-11.622-29.997-15.669v301.51l181.904-130.051&#10;&#9;&#9;&#9;C486.226,695.809,431.943,633.233,378.296,599.633z" style="fill: rgb(35, 77, 89);"/>
		<path fill="#F7AA9C" d="M139.887,590.46C72.43,807.884,50,852.599,50,852.599l220.223-78.186&#10;&#9;&#9;&#9;c-37.228-57.222-82.704-124.205-122.193-173.86C145.284,597.1,142.57,593.738,139.887,590.46z" style="fill: rgb(35, 77, 89);"/>
	</g>
	<path fill="#FFE2AE" d="M1148.613,298.659l-0.225,0.064L139.182,589.586c0.232,0.282,0.472,0.59,0.705,0.873&#10;&#9;&#9;c2.684,3.278,5.398,6.64,8.144,10.094c39.489,49.655,84.965,116.638,122.193,173.86c0.808,1.243,1.667,2.544,2.468,3.777&#10;&#9;&#9;c32.149,49.525,57.665,90.988,67.145,106.518c0.397,0.651,0.812,1.329,1.152,1.887c1.868,3.066,2.89,4.758,2.89,4.758l4.42-3.136&#10;&#9;&#9;v-2.742v-301.51v-0.482l40.667-14.469l759.069-270.055l0.459-0.164l1.505-0.535L1148.613,298.659z" style="fill: rgb(163, 183, 181);"/>
</g>
</svg>