<svg version="1.1" id="Layer_1" xmlns="http://www.w3.org/2000/svg" xmlns:xlink="http://www.w3.org/1999/xlink" x="0px" y="0px" viewBox="0 0 1200 1200" enable-background="new 0 0 1200 1200" xml:space="preserve">
<g>
	<path fill="#A2C63E" d="M490.571,819.195c0-9.141,5.793-16.551,12.939-16.551h31.725h1.678h31.725&#10;&#9;&#9;c7.145,0,12.939,7.41,12.939,16.551c-10.35,102.618-10.583,207.321,0,314.254c0,9.141-5.793,16.551-12.939,16.551h-31.725h-1.678&#10;&#9;&#9;h-31.725c-7.145,0-12.939-7.41-12.939-16.551C501.154,1026.516,500.92,921.813,490.571,819.195z" style="fill: rgb(163, 183, 181);"/>
	<path fill="#A2C63E" d="M490.571,451.857c0-9.141,5.793-16.551,12.939-16.551h31.725h1.678h31.725&#10;&#9;&#9;c7.145,0,12.939,7.41,12.939,16.551c-10.35,102.618-10.583,207.321,0,314.254c0,9.141-5.793,16.551-12.939,16.551h-31.725h-1.678&#10;&#9;&#9;h-31.725c-7.145,0-12.939-7.41-12.939-16.551C501.154,659.178,500.92,554.475,490.571,451.857z" style="fill: rgb(163, 183, 181);"/>
	<path fill="#A2C63E" d="M490.571,86.917c0-9.141,5.793-16.551,12.939-16.551h31.725h1.678h31.725&#10;&#9;&#9;c7.145,0,12.939,7.41,12.939,16.551c-10.35,102.618-10.583,207.321,0,314.255c0,9.141-5.793,16.551-12.939,16.551h-31.725h-1.678&#10;&#9;&#9;h-31.725c-7.145,0-12.939-7.41-12.939-16.551C501.154,294.238,500.92,189.535,490.571,86.917z" style="fill: rgb(163, 183, 181);"/>
	<path fill="#8FAA2B" d="M490.571,819.195c0-9.141,5.793-16.551,12.939-16.551h32.849V1150H503.51&#10;&#9;&#9;c-7.145,0-12.939-7.41-12.939-16.55C501.155,1026.516,500.92,921.813,490.571,819.195z" style="fill: rgb(71, 110, 102);"/>
	<path fill="#8FAA2B" d="M490.571,451.857c0-9.141,5.793-16.55,12.939-16.55h32.849v347.355H503.51&#10;&#9;&#9;c-7.145,0-12.939-7.41-12.939-16.55C501.155,659.178,500.92,554.475,490.571,451.857z" style="fill: rgb(71, 110, 102);"/>
	<path fill="#8FAA2B" d="M490.571,86.917c0-9.141,5.793-16.551,12.939-16.551h32.849v347.356H503.51&#10;&#9;&#9;c-7.145,0-12.939-7.41-12.939-16.55C501.155,294.238,500.92,189.535,490.571,86.917z" style="fill: rgb(71, 110, 102);"/>
	<g>
		<g>
			<g>
				<path fill="#8FAA2B" d="M599.229,317.818c-0.025,0.025-0.013,0.032-0.045,0.06C599.357,317.721,598.767,318.233,599.229,317.818&#10;&#9;&#9;&#9;&#9;&#9;z" style="fill: rgb(71, 110, 102);"/>
				<path fill="#8FAA2B" d="M736.653,50.276c0,0-0.029,0.237-0.08,0.628L599.439,317.63&#10;&#9;&#9;&#9;&#9;&#9;C599.439,317.63,591.689,165.067,736.653,50.276z" style="fill: rgb(71, 110, 102);"/>
			</g>
			<path fill="#8FAA2B" d="M599.444,316.005C599.24,316.192,599.242,316.188,599.444,316.005L599.444,316.005z" style="fill: rgb(71, 110, 102);"/>
		</g>
		<path fill="#A2C63E" d="M737.104,50c0,0-0.176,0.161-0.464,0.43L599.505,317.156C599.505,317.156,728.092,234.69,737.104,50z" style="fill: rgb(163, 183, 181);"/>
	</g>
	<g>
		<g>
			<g>
				<path fill="#8FAA2B" d="M473.36,757.841c0.025,0.021,0.014,0.028,0.046,0.052C473.235,757.76,473.818,758.189,473.36,757.841z" style="fill: rgb(71, 110, 102);"/>
				<path fill="#8FAA2B" d="M326.311,521.395c0,0,0.045,0.216,0.121,0.573l146.72,235.714&#10;&#9;&#9;&#9;&#9;&#9;C473.152,757.683,468.753,616.334,326.311,521.395z" style="fill: rgb(71, 110, 102);"/>
			</g>
			<path fill="#8FAA2B" d="M473.025,756.184C473.227,756.341,473.225,756.337,473.025,756.184L473.025,756.184z" style="fill: rgb(71, 110, 102);"/>
		</g>
		<path fill="#A2C63E" d="M325.874,521.175c0,0,0.175,0.135,0.461,0.362l146.72,235.714&#10;&#9;&#9;&#9;C473.055,757.251,348.171,690.898,325.874,521.175z" style="fill: rgb(163, 183, 181);"/>
	</g>
	<g>
		<g>
			<g>
				<path fill="#8FAA2B" d="M465.542,784.46c0.03-0.001,0.027,0.011,0.063,0.008C465.408,784.481,466.063,784.421,465.542,784.46z" style="fill: rgb(71, 110, 102);"/>
				<path fill="#8FAA2B" d="M222.867,712.063c0,0,0.161,0.121,0.428,0.317l242.01,72.097&#10;&#9;&#9;&#9;&#9;&#9;C465.305,784.478,377.106,690.862,222.867,712.063z" style="fill: rgb(71, 110, 102);"/>
			</g>
			<path fill="#8FAA2B" d="M464.315,783.534C464.547,783.519,464.543,783.518,464.315,783.534L464.315,783.534z" style="fill: rgb(71, 110, 102);"/>
		</g>
		<path fill="#A2C63E" d="M222.436,712.176c0,0,0.201-0.013,0.532-0.031l242.01,72.097&#10;&#9;&#9;&#9;C464.978,784.242,339.927,814.329,222.436,712.176z" style="fill: rgb(163, 183, 181);"/>
	</g>
	<g>
		<path fill="#A2C63E" d="M663.703,724.057c1.868-7.593,6.658-15.055,15.371-14.072c8.714,0.982,23.587,4.148,30.125,5.153&#10;&#9;&#9;&#9;c6.539,1.005-2.784-0.583,3.753,0.643c6.538,1.225,21.87,3.308,30.454,5.352c8.584,2.044,11.098,10.346,10.567,18.33&#10;&#9;&#9;&#9;c-23.448,104.609-28.582,210.335-28.175,317.275c-1.253,7.988-5.88,15.566-14.706,15.781c-8.827,0.215-24.197-0.947-30.849-1.107&#10;&#9;&#9;&#9;c-6.652-0.16,2.828,0.219-3.809-0.152c-6.635-0.372-22.087-0.438-30.828-1.356c-8.74-0.918-11.519-8.923-11.231-16.739&#10;&#9;&#9;&#9;C654.733,944.448,654.661,834,663.703,724.057z" style="fill: rgb(163, 183, 181);"/>
		<path fill="#A2C63E" d="M782.906,366.022c3.636-6.963,10.122-12.638,18.249-9.31c8.126,3.328,21.703,10.565,27.712,13.376&#10;&#9;&#9;&#9;c6.008,2.811-2.507-1.338,3.414,1.666c5.923,3.003,19.946,9.237,27.61,13.605c7.664,4.368,7.866,12.97,5.17,20.546&#10;&#9;&#9;&#9;c-58.681,106.027-91.467,185.929-103.132,283.828c-1.974,7.667-6.938,14.661-15.662,13.74c-8.723-0.921-23.803-4.058-30.347-5.074&#10;&#9;&#9;&#9;c-6.542-1.016,2.75,0.583-3.737-0.641c-6.488-1.224-21.516-3.542-30.017-5.692c-8.503-2.149-10.523-10.794-9.731-18.617&#10;&#9;&#9;&#9;C701.046,566.547,746.521,469.822,782.906,366.022z" style="fill: rgb(163, 183, 181);"/>
		<path fill="#8FAA2B" d="M663.655,724.052c2.611-7.52,5.752-15.144,15.622-14.046c9.868,1.098,21.776,4.057,32.05,5.426&#10;&#9;&#9;&#9;c-17.881,118.218-19.899,237.313-32.743,355.979c-10.396-0.784-22.872-0.443-32.774-1.488&#10;&#9;&#9;&#9;c-9.904-1.045-11.025-8.867-11.485-16.765C654.769,944.453,654.692,834.003,663.655,724.052z" style="fill: rgb(71, 110, 102);"/>
		<path fill="#8FAA2B" d="M782.859,366.003c4.331-6.682,9.274-12.98,18.482-9.213c9.208,3.767,19.973,9.957,29.482,14.179&#10;&#9;&#9;&#9;c-48.916,117.552-93.001,198.258-116.54,327.218c-10.137-2.12-22.29-3.646-31.919-6.074c-9.63-2.428-10.044-10.675-9.976-18.676&#10;&#9;&#9;&#9;C701.078,566.55,746.549,469.838,782.859,366.003z" style="fill: rgb(71, 110, 102);"/>
		<g>
			<g>
				<g>
					<path fill="#8FAA2B" d="M773.881,881.898c0.14-0.071-0.034,0.031-0.022,0.025C773.895,881.902,773.567,882.056,773.881,881.898&#10;&#9;&#9;&#9;&#9;&#9;&#9;z" style="fill: rgb(71, 110, 102);"/>
					<path fill="#8FAA2B" d="M977.117,735.082c-0.105,0.148-0.216,0.295-0.322,0.442c-73.697,50.855-154.401,94.064-224.084,150.262&#10;&#9;&#9;&#9;&#9;&#9;&#9;C790.914,799.109,893.481,758.808,977.117,735.082z" style="fill: rgb(71, 110, 102);"/>
				</g>
				<path fill="#8FAA2B" d="M774.529,880.434c-0.248,0.126-0.1,0.052-0.024,0.012C774.582,880.406,774.529,880.434,774.529,880.434z&#10;&#9;&#9;&#9;&#9;&#9;" style="fill: rgb(71, 110, 102);"/>
			</g>
			<path fill="#A2C63E" d="M977.564,735.054c-0.173,0.045-0.347,0.093-0.522,0.139c-73.709,50.864-154.317,94.136-224.109,150.217&#10;&#9;&#9;&#9;&#9;C849.941,858.135,915.962,815.973,977.564,735.054z" style="fill: rgb(163, 183, 181);"/>
		</g>
		<g>
			<g>
				<g>
					<path fill="#8FAA2B" d="M827.153,910.447c0.164,0.002,0,0.011-0.009,0.011C827.119,910.457,826.989,910.445,827.153,910.447z" style="fill: rgb(71, 110, 102);"/>
				</g>
				<path fill="#8FAA2B" d="M828.258,909.545c-0.225-0.001-0.092-0.001-0.021,0C828.31,909.545,828.258,909.545,828.258,909.545z" style="fill: rgb(71, 110, 102);"/>
			</g>
		</g>
	</g>
	<g>
		<g>
			<g>
				<path fill="#8FAA2B" d="M458.99,1130.481c0.022,0.019,0.013,0.025,0.042,0.047&#10;&#9;&#9;&#9;&#9;&#9;C458.877,1130.408,459.403,1130.795,458.99,1130.481z" style="fill: rgb(71, 110, 102);"/>
				<path fill="#8FAA2B" d="M326.476,917.406c0,0,0.04,0.195,0.109,0.517l132.218,212.415&#10;&#9;&#9;&#9;&#9;&#9;C458.803,1130.338,454.838,1002.961,326.476,917.406z" style="fill: rgb(71, 110, 102);"/>
			</g>
			<path fill="#8FAA2B" d="M458.688,1128.988C458.87,1129.129,458.868,1129.126,458.688,1128.988L458.688,1128.988z" style="fill: rgb(71, 110, 102);"/>
		</g>
		<path fill="#A2C63E" d="M326.082,917.208c0,0,0.157,0.122,0.415,0.326l132.218,212.415&#10;&#9;&#9;&#9;C458.715,1129.949,346.175,1070.155,326.082,917.208z" style="fill: rgb(163, 183, 181);"/>
	</g>
</g>
</svg>